<svg width="756" height="261" viewBox="0 0 756 261" fill="none" xmlns="http://www.w3.org/2000/svg">
<path d="M240.081 8.55179H284.685V22.8205H258.51V33.9522H279.369V47.1077H258.51V58.8466H286.153V73.1153H240.081V8.55179Z" fill="#30302F"/>
<path d="M293.899 25.907H310.05V33.4968C311.53 30.6961 313.778 28.3753 316.531 26.8069C319.284 25.2384 322.428 24.4875 325.593 24.6421C334.706 24.6421 340.782 30.3091 340.782 42.4021V73.1153H324.884V45.5392C324.884 40.1758 322.808 37.5952 318.1 37.5952C313.391 37.5952 310.05 40.4793 310.05 46.6523V73.1153H293.899V25.907Z" fill="#30302F"/>
<path d="M352.426 57.9358V36.8869H346.756V25.907H352.426V16.0403H368.577V26.16H377.893V36.8869H368.577V56.4178C368.438 57.112 368.473 57.8296 368.678 58.507C368.884 59.1844 369.253 59.8007 369.754 60.3012C370.255 60.8018 370.871 61.171 371.549 61.3762C372.227 61.5814 372.945 61.6163 373.64 61.4777C375.212 61.486 376.772 61.2117 378.247 60.6681V72.9129C375.336 73.7736 372.321 74.2332 369.286 74.279C358.4 74.1778 352.426 69.0168 352.426 57.9358Z" fill="#30302F"/>
<path d="M382.854 50.093V49.3846C382.767 46.064 383.366 42.7611 384.614 39.6827C385.863 36.6042 387.734 33.8164 390.11 31.4939C392.486 29.1713 395.317 27.364 398.424 26.185C401.531 25.006 404.849 24.4807 408.168 24.642C411.414 24.3929 414.675 24.8545 417.724 25.9946C420.773 27.1347 423.536 28.9259 425.821 31.2431C428.106 33.5603 429.857 36.3479 430.953 39.4112C432.049 42.4746 432.463 45.7401 432.166 48.9798V53.2301H399.207C399.114 54.5572 399.301 55.8892 399.757 57.139C400.214 58.3888 400.929 59.5284 401.856 60.4833C402.782 61.4383 403.9 62.1872 405.136 62.6811C406.372 63.175 407.699 63.4028 409.029 63.3498C414.396 63.3498 416.623 60.921 417.282 57.7333H432.47C431.053 68.4096 422.851 74.4308 408.573 74.4308C394.296 74.4308 382.854 65.7785 382.854 50.093ZM416.725 44.1224C416.471 38.4554 413.636 35.4195 408.422 35.4195C406.058 35.4191 403.788 36.3472 402.102 38.0035C400.416 39.6599 399.449 41.9119 399.41 44.2742L416.725 44.1224Z" fill="#30302F"/>
<path d="M439.406 25.907H455.658V35.4195C456.75 32.3154 458.822 29.65 461.562 27.8249C464.301 25.9997 467.56 25.1135 470.847 25.2998V40.4793C461.025 40.4793 455.658 43.3128 455.658 50.852V73.267H439.406V25.907Z" fill="#30302F"/>
<path d="M478.036 25.907H494.187V32.9402C495.682 30.3722 497.835 28.2493 500.425 26.7906C503.015 25.3319 505.947 24.5902 508.92 24.6421C519.957 24.6421 528.867 32.9402 528.867 49.0811V49.8401C528.867 66.0821 519.957 74.1779 508.616 74.1779C505.665 74.3612 502.722 73.7023 500.132 72.2778C497.541 70.8534 495.409 68.7221 493.984 66.1327V88.902H478.036V25.907ZM512.464 49.8401V49.0811C512.464 40.7829 508.818 36.8363 503.148 36.8363C497.478 36.8363 493.731 41.0865 493.731 48.9799V49.7389C493.731 57.784 497.275 61.8319 503.148 61.8319C509.021 61.8319 512.464 57.5816 512.464 49.8401V49.8401Z" fill="#30302F"/>
<path d="M536.106 25.907H552.257V35.4194C553.349 32.3154 555.421 29.65 558.16 27.8248C560.9 25.9996 564.158 25.1135 567.446 25.2998V40.4793C557.573 40.4793 552.257 43.3128 552.257 50.8519V73.267H536.106V25.907Z" fill="#30302F"/>
<path d="M574.382 13.1056C574.387 11.9653 574.624 10.8379 575.077 9.79132C575.53 8.74475 576.19 7.80066 577.018 7.01589C577.846 6.23113 578.824 5.62193 579.894 5.22499C580.963 4.82806 582.102 4.6516 583.242 4.70623C584.4 4.62327 585.564 4.77832 586.66 5.16183C587.756 5.54534 588.762 6.14919 589.616 6.93614C590.47 7.7231 591.153 8.67648 591.624 9.73753C592.095 10.7986 592.344 11.9448 592.355 13.1056C592.337 14.2463 592.087 15.3715 591.622 16.4132C591.157 17.455 590.485 18.3919 589.648 19.1673C588.81 19.9427 587.824 20.5406 586.75 20.9249C585.675 21.3093 584.533 21.4722 583.394 21.4037C582.249 21.4867 581.098 21.3343 580.014 20.9559C578.93 20.5775 577.936 19.9811 577.091 19.2035C576.247 18.426 575.571 17.4837 575.105 16.4349C574.639 15.3861 574.393 14.253 574.382 13.1056V13.1056ZM575.192 25.9069H591.393V73.1152H575.192V25.9069Z" fill="#30302F"/>
<path d="M598.229 58.1381H613.113C613.67 61.5282 615.189 63.1979 619.796 63.1979C624.404 63.1979 625.619 61.68 625.619 59.3018C625.619 56.9237 623.34 55.9624 616.86 55.0516C604.203 53.4324 598.887 49.9917 598.887 39.8721C598.887 29.7524 608.152 24.3384 619.138 24.3384C630.125 24.3384 638.934 28.2851 639.997 39.5179H625.365C625.251 38.8425 625.001 38.1974 624.63 37.6217C624.258 37.0459 623.774 36.5514 623.206 36.1682C622.638 35.785 621.998 35.521 621.325 35.3923C620.652 35.2636 619.96 35.2728 619.29 35.4194C615.746 35.4194 613.923 36.9374 613.923 39.1131C613.923 41.2888 616.1 42.2502 621.872 42.9586C634.985 44.6283 641.314 48.0184 641.314 58.1381C641.314 69.3203 633.01 74.3801 619.898 74.3801C606.785 74.3801 598.583 68.6119 598.229 58.1381Z" fill="#30302F"/>
<path d="M645.819 50.0929V49.3846C645.729 46.0415 646.335 42.7163 647.599 39.6197C648.863 36.5231 650.757 33.7229 653.161 31.3965C655.565 29.0701 658.426 27.2684 661.564 26.1056C664.701 24.9429 668.046 24.4445 671.387 24.642C674.632 24.3929 677.893 24.8545 680.942 25.9946C683.991 27.1347 686.754 28.9258 689.039 31.2431C691.324 33.5603 693.076 36.3478 694.172 39.4112C695.267 42.4746 695.682 45.74 695.385 48.9798V53.23H662.172C662.079 54.5572 662.266 55.8891 662.723 57.1389C663.179 58.3887 663.894 59.5283 664.821 60.4833C665.748 61.4382 666.866 62.1871 668.102 62.681C669.338 63.175 670.664 63.4028 671.994 63.3497C677.361 63.3497 679.589 60.921 680.247 57.7333H695.435C694.018 68.4095 685.765 74.4307 671.539 74.4307C657.312 74.4307 645.819 65.7784 645.819 50.0929ZM679.69 44.1223C679.437 38.4553 676.602 35.4194 671.387 35.4194C669.018 35.4188 666.743 36.3452 665.049 38.0002C663.355 39.6552 662.377 41.9073 662.324 44.2741L679.69 44.1223Z" fill="#30302F"/>
<path d="M240.436 94.569H259.168V159.132H240.436V94.569Z" fill="#30302F"/>
<path d="M270.407 111.924H286.609V119.514C288.083 116.709 290.331 114.385 293.085 112.816C295.839 111.247 298.985 110.498 302.152 110.659C311.265 110.659 317.34 116.326 317.34 128.419V159.132H301.139V131.556C301.139 126.193 299.063 123.612 294.355 123.612C289.646 123.612 286.355 126.496 286.355 132.518V158.981H270.154L270.407 111.924Z" fill="#30302F"/>
<path d="M329.086 122.904H323.264V111.924H329.086V107.775C329.086 96.0363 336.377 90.4199 347.565 90.4199C350.08 90.4265 352.583 90.7668 355.008 91.4319V103.272C353.569 102.81 352.064 102.588 350.553 102.614C349.848 102.514 349.131 102.573 348.452 102.786C347.774 103 347.152 103.362 346.632 103.848C346.112 104.333 345.708 104.929 345.449 105.591C345.19 106.253 345.083 106.965 345.135 107.674V111.823H354.704V122.803H345.287V159.031H329.086V122.904Z" fill="#30302F"/>
<path d="M357.287 136.11V135.402C357.208 132.031 357.834 128.681 359.125 125.566C360.415 122.451 362.342 119.639 364.782 117.311C367.221 114.982 370.12 113.188 373.293 112.042C376.466 110.897 379.843 110.426 383.209 110.659C397.739 110.659 408.979 119.969 408.979 134.946V135.655C408.979 150.834 397.689 160.195 383.107 160.195C368.526 160.195 357.287 151.34 357.287 136.11ZM392.727 136.11V135.098C392.727 127.154 389.588 122.752 383.411 122.752C377.235 122.752 374.045 127.003 374.045 134.946V135.655C374.045 143.801 377.184 148.203 383.411 148.203C389.639 148.203 392.524 143.7 392.524 135.857L392.727 136.11Z" fill="#30302F"/>
<path d="M416.016 111.924H432.166V121.437C433.258 118.333 435.33 115.667 438.07 113.842C440.809 112.017 444.068 111.131 447.355 111.317V126.497C437.533 126.497 432.166 129.33 432.166 136.869V159.284H416.016V111.924Z" fill="#30302F"/>
<path d="M454.646 111.924H470.847V119.16C472.302 116.52 474.456 114.332 477.072 112.832C479.688 111.333 482.666 110.582 485.681 110.659C488.37 110.452 491.056 111.099 493.357 112.507C495.657 113.915 497.453 116.013 498.49 118.502C500.259 116.017 502.609 114.004 505.336 112.636C508.063 111.269 511.084 110.59 514.134 110.659C523.045 110.659 529.323 116.427 529.323 128.267V159.132H513.375V130.949C513.375 126.193 510.995 123.815 507.299 123.815C506.295 123.781 505.296 123.962 504.368 124.346C503.44 124.73 502.605 125.308 501.919 126.041C501.233 126.775 500.713 127.646 500.392 128.598C500.071 129.549 499.958 130.558 500.059 131.556V158.93H484.111V130.949C484.111 126.193 481.732 123.815 478.036 123.815C477.036 123.788 476.042 123.975 475.121 124.362C474.199 124.749 473.37 125.329 472.69 126.061C472.01 126.794 471.493 127.663 471.176 128.61C470.858 129.558 470.746 130.562 470.847 131.556V158.93H454.646V111.924Z" fill="#30302F"/>
<path d="M536.006 146.027C536.006 134.946 545.423 130.595 561.32 130.595H565.826V129.532C565.826 124.979 564.763 122.044 559.599 122.044C558.808 121.96 558.009 122.04 557.251 122.279C556.492 122.519 555.792 122.912 555.193 123.434C554.594 123.957 554.11 124.598 553.77 125.316C553.43 126.035 553.243 126.815 553.22 127.61H538.031C538.74 116.225 547.701 110.659 560.611 110.659C573.522 110.659 581.926 115.972 581.926 128.52V159.132H566.181V153.617C564.653 155.862 562.551 157.657 560.093 158.814C557.635 159.971 554.912 160.448 552.207 160.195C543.499 160.195 536.006 156.046 536.006 146.027ZM565.624 142.587V139.703H561.371C554.89 139.703 552.005 140.968 552.005 144.763C552.005 147.444 553.827 149.165 557.624 149.165C558.587 149.291 559.566 149.219 560.5 148.952C561.434 148.685 562.303 148.228 563.053 147.612C563.803 146.995 564.418 146.23 564.861 145.366C565.303 144.502 565.563 143.556 565.624 142.587V142.587Z" fill="#30302F"/>
<path d="M592.609 143.953V122.904H586.938V111.924H592.609V102.057H608.81V111.924H618.075V122.904H608.81V142.435C608.81 145.876 610.531 147.495 613.569 147.495C615.141 147.508 616.703 147.233 618.176 146.685V158.93C615.283 159.791 612.285 160.251 609.266 160.296C598.583 160.195 592.609 155.034 592.609 143.953Z" fill="#30302F"/>
<path d="M625.214 99.1228C625.219 97.9825 625.456 96.8551 625.909 95.8086C626.362 94.762 627.022 93.8179 627.85 93.0331C628.678 92.2484 629.656 91.6392 630.726 91.2422C631.795 90.8453 632.934 90.6688 634.074 90.7235C636.289 90.7235 638.414 91.6031 639.981 93.1688C641.548 94.7345 642.428 96.858 642.428 99.0722C642.428 101.286 641.548 103.41 639.981 104.976C638.414 106.541 636.289 107.421 634.074 107.421C632.941 107.482 631.807 107.314 630.741 106.926C629.675 106.538 628.699 105.938 627.871 105.163C627.043 104.387 626.381 103.452 625.924 102.414C625.467 101.376 625.226 100.257 625.214 99.1228ZM626.024 111.924H642.225V159.132H626.024V111.924Z" fill="#30302F"/>
<path d="M649.718 136.11V135.402C649.639 132.031 650.265 128.681 651.556 125.566C652.846 122.451 654.773 119.639 657.212 117.311C659.652 114.982 662.551 113.188 665.724 112.042C668.897 110.897 672.274 110.426 675.639 110.659C690.17 110.659 701.359 119.969 701.359 134.946V135.655C701.359 150.834 690.068 160.195 675.538 160.195C661.008 160.195 649.718 151.34 649.718 136.11ZM684.904 136.11V135.098C684.904 127.154 681.765 122.752 675.639 122.752C669.513 122.752 666.222 127.002 666.222 134.946V135.655C666.222 143.801 669.412 148.203 675.639 148.203C681.867 148.203 684.904 143.7 684.904 135.857V136.11Z" fill="#30302F"/>
<path d="M708.396 111.924H724.546V119.514C726.026 116.713 728.274 114.392 731.027 112.824C733.781 111.256 736.924 110.505 740.089 110.659C749.203 110.659 755.278 116.326 755.278 128.419V159.132H739.178V131.556C739.178 126.193 737.102 123.612 732.394 123.612C727.685 123.612 724.344 126.496 724.344 132.518V158.981H708.193L708.396 111.924Z" fill="#30302F"/>
<path d="M235.93 224.657H253.548C254.004 229.262 256.08 233.057 263.674 233.057C269.041 233.057 272.028 230.426 272.028 226.631C272.028 222.836 269.547 221.571 261.902 220.407C243.676 218.231 237.499 212.817 237.499 199.814C237.499 188.176 247.119 179.574 262.51 179.574C277.901 179.574 286.811 186.101 287.824 199.814H270.813C270.759 198.796 270.495 197.8 270.037 196.889C269.579 195.979 268.938 195.172 268.153 194.521C267.369 193.87 266.458 193.388 265.478 193.106C264.498 192.824 263.47 192.748 262.459 192.882C257.396 192.882 254.966 195.159 254.966 198.397C254.966 201.635 256.991 203.457 265.092 204.722C281.445 206.493 289.849 210.743 289.849 224.961C289.849 236.75 280.483 246.415 263.826 246.415C245.701 246.212 236.487 238.623 235.93 224.657Z" fill="#30302F"/>
<path d="M295.013 222.127V221.419C294.926 218.098 295.525 214.796 296.774 211.717C298.022 208.639 299.893 205.851 302.269 203.528C304.645 201.206 307.476 199.398 310.583 198.219C313.69 197.04 317.008 196.515 320.328 196.676C323.575 196.428 326.838 196.89 329.889 198.03C332.94 199.17 335.706 200.96 337.995 203.276C340.283 205.592 342.04 208.379 343.142 211.442C344.244 214.505 344.665 217.772 344.376 221.014V225.265H311.316C311.258 226.576 311.474 227.884 311.95 229.107C312.426 230.33 313.151 231.441 314.08 232.369C315.008 233.297 316.12 234.022 317.343 234.497C318.567 234.973 319.876 235.189 321.188 235.131C326.251 235.131 328.783 232.702 329.39 229.515H344.579C343.11 240.191 334.909 246.212 320.631 246.212C306.354 246.212 295.013 237.813 295.013 222.127ZM329.086 216.157C329.086 210.49 326.049 207.302 320.783 207.302C318.419 207.302 316.15 208.23 314.464 209.886C312.778 211.542 311.811 213.795 311.771 216.157H329.086Z" fill="#30302F"/>
<path d="M348.984 222.127V221.419C348.834 218.082 349.39 214.751 350.617 211.644C351.844 208.537 353.713 205.723 356.102 203.388C358.492 201.052 361.348 199.247 364.483 198.091C367.619 196.934 370.963 196.452 374.298 196.676C385.842 196.676 396.524 201.736 397.436 216.056H382.247C382.23 215.098 382.016 214.154 381.618 213.283C381.22 212.412 380.647 211.631 379.935 210.991C379.223 210.35 378.386 209.863 377.478 209.559C376.569 209.255 375.607 209.141 374.653 209.225C368.982 209.225 365.641 213.273 365.641 221.217V221.925C365.641 230.173 368.78 234.372 374.906 234.372C375.97 234.427 377.034 234.265 378.033 233.896C379.033 233.526 379.946 232.957 380.718 232.223C381.491 231.489 382.105 230.606 382.525 229.627C382.944 228.648 383.16 227.594 383.158 226.529H397.689C397.233 238.471 389.183 246.212 373.944 246.212C359.717 246.212 348.984 237.813 348.984 222.127Z" fill="#30302F"/>
<path d="M403.814 228.705V197.941H420.218V226.074C420.218 231.437 422.294 234.018 426.901 234.018C431.508 234.018 434.951 231.134 434.951 225.113V197.941H451.102V245.15H434.698V237.813C433.295 240.568 431.098 242.841 428.391 244.338C425.684 245.835 422.591 246.488 419.509 246.212C410.599 246.212 403.814 240.646 403.814 228.705Z" fill="#30302F"/>
<path d="M460.417 197.941H476.618V207.454C477.659 204.316 479.719 201.616 482.471 199.783C485.222 197.949 488.509 197.087 491.807 197.334V212.514C481.985 212.514 476.618 215.347 476.618 222.886V245.301H460.417V197.941Z" fill="#30302F"/>
<path d="M498.692 185.14C498.698 184 498.934 182.872 499.387 181.826C499.84 180.779 500.501 179.835 501.328 179.05C502.156 178.266 503.135 177.656 504.204 177.259C505.274 176.863 506.413 176.686 507.552 176.741C508.649 176.741 509.736 176.957 510.749 177.376C511.763 177.796 512.684 178.411 513.459 179.186C514.235 179.961 514.85 180.882 515.27 181.895C515.69 182.907 515.906 183.993 515.906 185.089C515.906 186.186 515.69 187.271 515.27 188.284C514.85 189.297 514.235 190.218 513.459 190.993C512.684 191.768 511.763 192.383 510.749 192.803C509.736 193.222 508.649 193.438 507.552 193.438C506.419 193.5 505.286 193.331 504.22 192.943C503.154 192.555 502.177 191.955 501.349 191.18C500.521 190.405 499.859 189.47 499.403 188.432C498.946 187.394 498.704 186.274 498.692 185.14V185.14ZM499.502 197.941H515.704V245.15H499.502V197.941Z" fill="#30302F"/>
<path d="M527.905 229.97V208.921H522.184V197.941H527.905V188.075H544.055V197.941H553.371V208.921H544.055V228.452C543.931 229.117 543.965 229.802 544.155 230.452C544.345 231.101 544.686 231.696 545.15 232.189C545.613 232.682 546.187 233.059 546.824 233.289C547.46 233.519 548.142 233.595 548.814 233.512C550.387 233.525 551.948 233.25 553.421 232.702V244.947C550.528 245.808 547.53 246.268 544.511 246.313C533.828 246.212 527.905 241.051 527.905 229.97Z" fill="#30302F"/>
<path d="M575.649 240.343L556.916 197.941H574.434L584.205 223.24L593.217 197.941H608.405L583.091 260.936H567.902L575.649 240.343Z" fill="#30302F"/>
<path d="M100.346 244.593C98.6199 244.568 96.9096 244.26 95.2832 243.682L94.0174 243.227L92.9036 242.873C37.3133 218.839 0 149.772 0 70.8384C0 64.8172 0 58.796 0.658173 52.8253C0.635398 52.6405 0.635398 52.4536 0.658173 52.2688L1.97452 40.9853C2.37774 37.3226 4.07068 33.9224 6.75095 31.392C9.43122 28.8617 12.9243 27.3659 16.6062 27.172H22.1754C32.8917 25.9035 43.4568 23.5816 53.717 20.24C66.9192 16.3631 79.513 10.6576 91.1316 3.28956C93.7109 1.52153 96.7627 0.569534 99.8904 0.557251H100.346C103.616 0.566731 106.814 1.51514 109.56 3.28956V3.28956C121.128 10.6512 133.671 16.3568 146.823 20.24C157.091 23.5006 167.656 25.7378 178.365 26.919H183.883C187.574 27.1013 191.079 28.5918 193.77 31.1233C196.461 33.6547 198.161 37.0614 198.566 40.7323L199.831 52.1676C199.804 52.3521 199.804 52.5397 199.831 52.7242C200.236 58.6948 200.49 64.716 200.49 70.7372C200.49 149.519 163.126 218.586 107.586 242.772L106.624 243.176L105.358 243.632C103.754 244.232 102.059 244.557 100.346 244.593V244.593ZM31.5417 57.025C31.2379 61.6295 31.086 66.3351 31.086 70.9902C31.086 134.086 59.2862 191.06 100.346 212.058C141.355 191.06 169.606 134.086 169.606 70.8384C169.606 66.1833 169.606 61.4777 169.15 56.8732C158.501 55.3634 147.988 53.0117 137.71 49.84C124.739 45.8926 112.217 40.6017 100.346 34.0534C88.4577 40.6016 75.9183 45.8924 62.9314 49.84C52.6738 53.0574 42.1779 55.4599 31.5417 57.025V57.025Z" fill="#A1CCFF"/>
<path d="M33.4149 98.3132C32.1978 89.2049 31.572 80.0274 31.5417 70.8383C31.5417 66.2338 31.5417 61.5788 31.9973 57.025C42.5468 55.4397 52.957 53.0375 63.1339 49.84C76.0417 45.8972 88.4976 40.6057 100.295 34.0533C112.121 40.5844 124.592 45.8748 137.507 49.84C147.667 53.0371 158.061 55.4393 168.593 57.025V57.025C179.345 58.2045 190.194 58.2045 200.945 57.025C200.945 54.242 200.945 55.3046 200.54 52.4711C200.568 52.2866 200.568 52.099 200.54 51.9145L199.274 40.4793C198.718 36.7334 196.861 33.3023 194.029 30.7864C191.197 28.2704 187.57 26.8298 183.782 26.7165L178.264 26.4129C167.583 25.2619 157.048 23.0239 146.823 19.734C133.799 15.8751 121.377 10.2211 109.915 2.93531C107.273 1.00075 104.077 -0.0286501 100.802 0.000606812H99.8397C96.724 0.037892 93.6909 1.0072 91.1316 2.78352C79.5207 10.1657 66.9248 15.8722 53.717 19.734C43.5231 23.0122 33.0231 25.2499 22.3779 26.4129L16.8593 26.7165C13.115 26.8994 9.55874 28.4114 6.83021 30.9806C4.10167 33.5498 2.37989 37.0077 1.97452 40.7323L0.708801 52.2181V52.7747C0 58.7453 0 64.8171 0 70.8383C0 149.924 37.2627 219.294 92.7517 243.379L93.7137 243.733L94.9794 244.188C98.4228 245.481 102.219 245.481 105.662 244.188L106.928 243.733L107.839 243.379C140.393 229.262 166.771 199.459 183.225 161.055L144.089 169.1C128.901 191.617 119.585 201.331 100.295 212.058C73.7153 198.296 52.5526 169.1 41.0598 132.973C60.5801 136.391 80.3787 137.966 100.194 137.679C145.76 137.679 176.441 128.925 195.477 121.184C198.874 109.149 200.578 96.7004 200.54 84.1963C197.148 86.0178 161.556 106.257 100.194 106.257C77.6815 106.56 55.2274 103.889 33.4149 98.3132V98.3132Z" fill="#1A3E70"/>
</svg>
