<svg width="23" height="28" viewBox="0 0 23 28" fill="none" xmlns="http://www.w3.org/2000/svg">
<path d="M11.3133 27.5762C11.1187 27.5734 10.9259 27.5387 10.7425 27.4735L10.5998 27.4222L10.4743 27.3822C4.20683 24.6726 0 16.8857 0 7.98653C0 7.30768 0 6.62883 0.0742046 5.95568C0.0716369 5.93484 0.0716369 5.91377 0.0742046 5.89293L0.222614 4.6208C0.268075 4.20785 0.458942 3.8245 0.761125 3.53922C1.06331 3.25394 1.45712 3.0853 1.87224 3.06344H2.50012C3.70832 2.92042 4.89946 2.65865 6.05623 2.2819C7.54469 1.84481 8.96456 1.20155 10.2745 0.370855C10.5653 0.171521 10.9093 0.06419 11.262 0.0628052H11.3133C11.682 0.063874 12.0426 0.1708 12.3522 0.370855C13.6564 1.20083 15.0705 1.8441 16.5533 2.2819C17.7109 2.64951 18.9021 2.90174 20.1094 3.03491H20.7316C21.1477 3.05547 21.5429 3.22351 21.8463 3.50892C22.1496 3.79432 22.3413 4.1784 22.3869 4.59228L22.5296 5.88152C22.5265 5.90232 22.5265 5.92347 22.5296 5.94427C22.5753 6.61742 22.6039 7.29627 22.6039 7.97512C22.6039 16.8572 18.3913 24.644 12.1296 27.3708L12.0211 27.4165L11.8784 27.4678C11.6975 27.5355 11.5065 27.5722 11.3133 27.5762ZM3.55611 6.42917C3.52186 6.94829 3.50474 7.47882 3.50474 8.00364C3.50474 15.1173 6.68412 21.5407 11.3133 23.9081C15.9369 21.5407 19.1219 15.1173 19.1219 7.98653C19.1219 7.4617 19.1219 6.93117 19.0706 6.41205C17.8699 6.24184 16.6846 5.97669 15.5259 5.61911C14.0635 5.17406 12.6517 4.57754 11.3133 3.83927C9.97302 4.57753 8.55929 5.17404 7.0951 5.61911C5.93862 5.98184 4.75528 6.2527 3.55611 6.42917Z" fill="#A1CCFF"/>
<path d="M3.76731 11.0842C3.63008 10.0573 3.55954 9.02255 3.55611 7.98654C3.55611 7.46742 3.55611 6.9426 3.60748 6.42918C4.79686 6.25045 5.97055 5.97962 7.11793 5.61912C8.57319 5.1746 9.97751 4.57802 11.3076 3.83928C12.6409 4.57562 14.0469 5.17208 15.503 5.61912C16.6485 5.97958 17.8203 6.25041 19.0078 6.42918C20.22 6.56217 21.4431 6.56217 22.6552 6.42918C22.6552 6.11543 22.6552 6.23522 22.6096 5.91576C22.6127 5.89496 22.6127 5.87381 22.6096 5.85301L22.4669 4.56377C22.4041 4.14144 22.1948 3.75461 21.8755 3.47095C21.5562 3.1873 21.1472 3.02488 20.7202 3.01211L20.098 2.97788C18.8939 2.84811 17.7062 2.59579 16.5533 2.22487C15.085 1.78981 13.6845 1.15236 12.3922 0.330937C12.0943 0.112828 11.7339 -0.00323011 11.3647 6.8414e-05H11.2563C10.905 0.00427207 10.563 0.113555 10.2745 0.313823C8.96542 1.14612 7.54532 1.78949 6.05623 2.22487C4.90694 2.59447 3.72314 2.84676 2.52296 2.97788L1.90078 3.01211C1.47863 3.03272 1.07768 3.20319 0.77006 3.49285C0.462436 3.78252 0.268317 4.17237 0.222614 4.59229L0.0799126 5.88724V5.94999C0 6.62314 0 7.30769 0 7.98654C0 16.9029 4.20112 24.7239 10.4571 27.4393L10.5656 27.4792L10.7083 27.5306C11.0965 27.6763 11.5245 27.6763 11.9127 27.5306L12.0554 27.4792L12.1581 27.4393C15.8284 25.8477 18.8023 22.4877 20.6574 18.1579L16.2451 19.0649C14.5327 21.6035 13.4824 22.6988 11.3076 23.9081C8.31091 22.3565 5.92495 19.0649 4.62922 14.9918C6.83 15.3771 9.06216 15.5547 11.2962 15.5224C16.4335 15.5224 19.8925 14.5355 22.0388 13.6626C22.4217 12.3058 22.6138 10.9023 22.6096 9.49256C22.2271 9.69793 18.2144 11.9798 11.2962 11.9798C8.75806 12.014 6.22652 11.7128 3.76731 11.0842Z" fill="white"/>
</svg>
