<svg width="755" height="260" viewBox="0 0 755 260" fill="none" xmlns="http://www.w3.org/2000/svg">
<path d="M239.994 7.68872H284.582V21.9522H258.416V33.0797H279.268V46.2304H258.416V57.9649H286.049V72.2284H239.994V7.68872Z" fill="white"/>
<path d="M293.793 25.0372H309.938V32.6242C311.417 29.8245 313.664 27.5046 316.416 25.9367C319.168 24.3689 322.311 23.6182 325.475 23.7727C334.585 23.7727 340.658 29.4377 340.658 41.5262V72.2281H324.766V44.6621C324.766 39.3007 322.691 36.7211 317.985 36.7211C313.278 36.7211 309.938 39.6042 309.938 45.7749V72.2281H293.793V25.0372Z" fill="white"/>
<path d="M352.298 57.0548V36.0136H346.63V25.0378H352.298V15.1748H368.443V25.2907H377.755V36.0136H368.443V55.5374C368.304 56.2312 368.339 56.9486 368.544 57.6258C368.75 58.3029 369.119 58.919 369.62 59.4194C370.12 59.9197 370.737 60.2888 371.414 60.4939C372.092 60.6991 372.81 60.7339 373.504 60.5953C375.075 60.6036 376.635 60.3295 378.109 59.7861V72.0263C375.199 72.8867 372.186 73.3462 369.151 73.392C358.27 73.2908 352.298 68.1317 352.298 57.0548Z" fill="white"/>
<path d="M382.713 49.2145V48.5064C382.626 45.187 383.225 41.8853 384.473 38.808C385.721 35.7307 387.591 32.9439 389.967 30.6222C392.342 28.3005 395.171 26.4939 398.278 25.3153C401.384 24.1367 404.7 23.6116 408.018 23.7729C411.263 23.5239 414.523 23.9853 417.57 25.125C420.618 26.2647 423.38 28.0552 425.664 30.3716C427.948 32.6879 429.699 35.4744 430.795 38.5367C431.89 41.5989 432.304 44.8632 432.008 48.1017V52.3504H399.06C398.967 53.6771 399.154 55.0085 399.61 56.2579C400.067 57.5072 400.781 58.6464 401.708 59.601C402.634 60.5556 403.752 61.3042 404.988 61.7979C406.223 62.2917 407.549 62.5194 408.879 62.4664C414.243 62.4664 416.47 60.0385 417.128 56.852H432.311C430.894 67.5243 422.695 73.5433 408.423 73.5433C394.151 73.5433 382.713 64.8942 382.713 49.2145ZM416.571 43.2461C416.318 37.5812 413.484 34.5464 408.271 34.5464C405.908 34.546 403.64 35.4737 401.955 37.1295C400.269 38.7852 399.303 41.0364 399.263 43.3978L416.571 43.2461Z" fill="white"/>
<path d="M439.245 25.0378H455.491V34.5468C456.583 31.4438 458.654 28.7795 461.392 26.9549C464.131 25.1304 467.388 24.2446 470.674 24.4308V39.6047C460.856 39.6047 455.491 42.4372 455.491 49.9736V72.3804H439.245V25.0378Z" fill="white"/>
<path d="M477.861 25.0375H494.006V32.0681C495.5 29.501 497.653 27.3789 500.242 25.9207C502.831 24.4626 505.762 23.7212 508.733 23.773C519.766 23.773 528.674 32.0681 528.674 48.203V48.9617C528.674 65.1978 519.766 73.2905 508.43 73.2905C505.48 73.4738 502.538 72.8151 499.949 71.3912C497.359 69.9673 495.228 67.8368 493.803 65.2484V88.0092H477.861V25.0375ZM512.276 48.9617V48.203C512.276 39.9079 508.632 35.9627 502.964 35.9627C497.296 35.9627 493.55 40.2114 493.55 48.1019V48.8605C493.55 56.9027 497.093 60.9491 502.964 60.9491C508.835 60.9491 512.276 56.7004 512.276 48.9617V48.9617Z" fill="white"/>
<path d="M535.91 25.0378H552.055V34.5468C553.147 31.4438 555.218 28.7795 557.956 26.9549C560.694 25.1304 563.952 24.2446 567.238 24.4308V39.6047C557.369 39.6047 552.055 42.4372 552.055 49.9736V72.3804H535.91V25.0378Z" fill="white"/>
<path d="M574.171 12.2403C574.176 11.1004 574.413 9.97345 574.866 8.92727C575.318 7.88109 575.979 6.93734 576.806 6.15286C577.634 5.36839 578.611 4.75942 579.681 4.36263C580.75 3.96584 581.888 3.78944 583.028 3.84406C584.186 3.76112 585.349 3.91612 586.444 4.29949C587.54 4.68286 588.546 5.28648 589.399 6.07314C590.253 6.85981 590.936 7.81284 591.407 8.8735C591.878 9.93416 592.127 11.08 592.137 12.2403C592.119 13.3806 591.87 14.5053 591.405 15.5468C590.939 16.5882 590.268 17.5247 589.431 18.2998C588.594 19.0749 587.609 19.6726 586.534 20.0568C585.46 20.441 584.319 20.6038 583.179 20.5354C582.035 20.6183 580.885 20.466 579.801 20.0877C578.718 19.7095 577.723 19.1133 576.879 18.336C576.035 17.5587 575.359 16.6168 574.893 15.5684C574.428 14.52 574.182 13.3873 574.171 12.2403V12.2403ZM574.981 25.0369H591.176V72.2278H574.981V25.0369Z" fill="white"/>
<path d="M598.008 57.2561H612.887C613.444 60.6449 614.962 62.314 619.568 62.314C624.173 62.314 625.388 60.7966 625.388 58.4194C625.388 56.0422 623.11 55.0811 616.632 54.1707C603.98 52.5522 598.666 49.1127 598.666 38.9968C598.666 28.8809 607.927 23.4688 618.91 23.4688C629.892 23.4688 638.698 27.414 639.761 38.6427H625.135C625.02 37.9676 624.77 37.3228 624.399 36.7472C624.028 36.1716 623.544 35.6773 622.976 35.2943C622.408 34.9112 621.769 34.6473 621.096 34.5187C620.423 34.39 619.731 34.3992 619.062 34.5458C615.519 34.5458 613.697 36.0632 613.697 38.2381C613.697 40.413 615.873 41.374 621.643 42.0822C634.751 43.7513 641.077 47.1401 641.077 57.2561C641.077 68.4342 632.777 73.4921 619.669 73.4921C606.561 73.4921 598.362 67.7261 598.008 57.2561Z" fill="white"/>
<path d="M645.582 49.2145V48.5064C645.492 45.1646 646.098 41.8405 647.361 38.7451C648.625 35.6497 650.518 32.8504 652.921 30.5249C655.324 28.1994 658.184 26.3983 661.321 25.236C664.457 24.0737 667.801 23.5755 671.14 23.7729C674.385 23.5239 677.644 23.9853 680.692 25.125C683.74 26.2647 686.502 28.0552 688.786 30.3716C691.07 32.6879 692.821 35.4744 693.916 38.5367C695.012 41.5989 695.426 44.8632 695.129 48.1017V52.3504H661.929C661.835 53.6771 662.023 55.0085 662.479 56.2579C662.935 57.5072 663.65 58.6464 664.576 59.601C665.503 60.5556 666.621 61.3042 667.856 61.7979C669.092 62.2917 670.418 62.5194 671.747 62.4664C677.112 62.4664 679.339 60.0385 679.997 56.852H695.18C693.763 67.5243 685.513 73.5433 671.292 73.5433C657.07 73.5433 645.582 64.8942 645.582 49.2145ZM679.44 43.2461C679.187 37.5812 676.353 34.5464 671.14 34.5464C668.772 34.5458 666.498 35.4718 664.805 37.1262C663.112 38.7806 662.134 41.0318 662.081 43.3978L679.44 43.2461Z" fill="white"/>
<path d="M240.348 93.6742H259.073V158.214H240.348V93.6742Z" fill="white"/>
<path d="M270.309 111.023H286.504V118.61C287.978 115.806 290.225 113.483 292.978 111.914C295.731 110.346 298.876 109.598 302.041 109.759C311.151 109.759 317.224 115.424 317.224 127.512V158.214H301.029V130.648C301.029 125.287 298.954 122.707 294.247 122.707C289.541 122.707 286.251 125.59 286.251 131.609V158.062H270.056L270.309 111.023Z" fill="white"/>
<path d="M328.967 121.998H323.146V111.022H328.967V106.875C328.967 95.1404 336.254 89.5261 347.439 89.5261C349.953 89.5326 352.455 89.8728 354.879 90.5376V102.373C353.441 101.911 351.936 101.689 350.425 101.716C349.721 101.616 349.004 101.674 348.326 101.888C347.647 102.101 347.026 102.464 346.506 102.949C345.987 103.434 345.582 104.03 345.324 104.692C345.065 105.354 344.958 106.065 345.01 106.774V110.921H354.575V121.897H345.162V158.112H328.967V121.998Z" fill="white"/>
<path d="M357.156 135.199V134.491C357.078 131.122 357.703 127.773 358.993 124.659C360.283 121.545 362.209 118.735 364.648 116.407C367.087 114.079 369.985 112.285 373.156 111.141C376.328 109.996 379.704 109.525 383.068 109.758C397.593 109.758 408.829 119.064 408.829 134.036V134.744C408.829 149.918 397.543 159.275 382.967 159.275C368.391 159.275 357.156 150.424 357.156 135.199ZM392.583 135.199V134.188C392.583 126.247 389.445 121.846 383.271 121.846C377.096 121.846 373.908 126.095 373.908 134.036V134.744C373.908 142.887 377.046 147.288 383.271 147.288C389.496 147.288 392.381 142.786 392.381 134.946L392.583 135.199Z" fill="white"/>
<path d="M415.863 111.022H432.008V120.531C433.1 117.428 435.171 114.764 437.909 112.939C440.648 111.115 443.905 110.229 447.191 110.415V125.589C437.373 125.589 432.008 128.422 432.008 135.958V158.365H415.863V111.022Z" fill="white"/>
<path d="M454.479 111.023H470.675V118.256C472.13 115.618 474.283 113.43 476.898 111.931C479.513 110.432 482.49 109.681 485.503 109.759C488.192 109.552 490.877 110.198 493.176 111.606C495.475 113.014 497.271 115.111 498.308 117.599C500.076 115.115 502.425 113.102 505.152 111.735C507.878 110.368 510.897 109.69 513.946 109.759C522.854 109.759 529.129 115.525 529.129 127.36V158.214H513.187V130.041C513.187 125.287 510.808 122.909 507.114 122.909C506.11 122.875 505.111 123.056 504.184 123.44C503.256 123.824 502.421 124.402 501.736 125.135C501.05 125.868 500.53 126.74 500.209 127.69C499.888 128.641 499.775 129.65 499.877 130.648V158.012H483.935V130.041C483.935 125.287 481.556 122.909 477.861 122.909C476.862 122.883 475.869 123.069 474.947 123.456C474.026 123.844 473.197 124.423 472.517 125.155C471.837 125.887 471.321 126.756 471.003 127.703C470.686 128.65 470.574 129.654 470.675 130.648V158.012H454.479V111.023Z" fill="white"/>
<path d="M535.809 145.114C535.809 134.037 545.222 129.687 561.114 129.687H565.618V128.625C565.618 124.072 564.555 121.139 559.393 121.139C558.603 121.055 557.803 121.135 557.045 121.374C556.288 121.613 555.587 122.006 554.989 122.529C554.39 123.051 553.906 123.692 553.566 124.41C553.227 125.128 553.039 125.909 553.016 126.702H537.833C538.542 115.322 547.5 109.758 560.405 109.758C573.311 109.758 581.712 115.069 581.712 127.613V158.214H565.972V152.7C564.445 154.945 562.344 156.739 559.887 157.895C557.43 159.052 554.708 159.528 552.004 159.276C543.299 159.276 535.809 155.128 535.809 145.114ZM565.415 141.674V138.791H561.164C554.686 138.791 551.801 140.056 551.801 143.849C551.801 146.53 553.623 148.249 557.419 148.249C558.382 148.376 559.36 148.304 560.294 148.037C561.227 147.77 562.096 147.314 562.846 146.697C563.596 146.08 564.211 145.316 564.653 144.452C565.095 143.588 565.354 142.643 565.415 141.674V141.674Z" fill="white"/>
<path d="M592.39 143.04V121.999H586.722V111.023H592.39V101.16H608.585V111.023H617.847V121.999H608.585V141.523C608.585 144.962 610.306 146.581 613.343 146.581C614.914 146.594 616.475 146.319 617.948 145.772V158.012C615.056 158.873 612.058 159.332 609.041 159.378C598.362 159.276 592.39 154.117 592.39 143.04Z" fill="white"/>
<path d="M624.984 98.2266C624.99 97.0868 625.226 95.9598 625.679 94.9136C626.132 93.8674 626.792 92.9237 627.62 92.1392C628.447 91.3547 629.425 90.7458 630.494 90.349C631.563 89.9522 632.702 89.7758 633.841 89.8304C636.056 89.8304 638.18 90.7097 639.746 92.2748C641.312 93.8399 642.192 95.9627 642.192 98.1761C642.192 100.389 641.312 102.512 639.746 104.077C638.18 105.642 636.056 106.522 633.841 106.522C632.709 106.583 631.575 106.415 630.51 106.027C629.444 105.639 628.468 105.039 627.64 104.264C626.813 103.489 626.151 102.555 625.694 101.517C625.238 100.479 624.996 99.3601 624.984 98.2266ZM625.794 111.023H641.989V158.214H625.794V111.023Z" fill="white"/>
<path d="M649.478 135.199V134.491C649.4 131.122 650.026 127.773 651.316 124.659C652.606 121.545 654.532 118.735 656.97 116.407C659.409 114.079 662.307 112.285 665.479 111.141C668.65 109.996 672.026 109.525 675.391 109.758C689.916 109.758 701.1 119.064 701.1 134.036V134.744C701.1 149.918 689.814 159.275 675.289 159.275C660.764 159.275 649.478 150.424 649.478 135.199ZM684.652 135.199V134.188C684.652 126.247 681.514 121.846 675.391 121.846C669.267 121.846 665.977 126.095 665.977 134.036V134.744C665.977 142.887 669.166 147.288 675.391 147.288C681.616 147.288 684.652 142.786 684.652 134.946V135.199Z" fill="white"/>
<path d="M708.136 111.023H724.281V118.61C725.76 115.81 728.007 113.49 730.759 111.922C733.511 110.354 736.654 109.604 739.818 109.758C748.928 109.758 755.001 115.423 755.001 127.512V158.213H738.907V130.648C738.907 125.286 736.832 122.707 732.125 122.707C727.418 122.707 724.078 125.59 724.078 131.609V158.062H707.934L708.136 111.023Z" fill="white"/>
<path d="M235.844 223.715H253.456C253.912 228.318 255.987 232.111 263.578 232.111C268.943 232.111 271.929 229.481 271.929 225.687C271.929 221.894 269.449 220.629 261.807 219.466C243.587 217.291 237.413 211.879 237.413 198.88C237.413 187.247 247.029 178.648 262.414 178.648C277.799 178.648 286.707 185.173 287.719 198.88H270.714C270.66 197.863 270.396 196.868 269.938 195.957C269.481 195.047 268.84 194.241 268.056 193.59C267.271 192.939 266.361 192.457 265.381 192.175C264.401 191.893 263.374 191.817 262.363 191.951C257.302 191.951 254.873 194.227 254.873 197.464C254.873 200.701 256.898 202.522 264.995 203.786C281.342 205.557 289.743 209.805 289.743 224.018C289.743 235.803 280.381 245.464 263.73 245.464C245.611 245.262 236.4 237.675 235.844 223.715Z" fill="white"/>
<path d="M294.905 221.185V220.477C294.817 217.157 295.416 213.856 296.664 210.778C297.913 207.701 299.783 204.914 302.158 202.593C304.533 200.271 307.363 198.464 310.469 197.286C313.575 196.107 316.891 195.582 320.21 195.743C323.456 195.495 326.718 195.957 329.768 197.097C332.818 198.236 335.583 200.025 337.87 202.341C340.158 204.656 341.914 207.442 343.016 210.504C344.117 213.566 344.538 216.831 344.25 220.072V224.321H311.201C311.144 225.631 311.36 226.939 311.835 228.162C312.311 229.385 313.036 230.495 313.964 231.423C314.892 232.35 316.003 233.075 317.227 233.55C318.45 234.025 319.759 234.241 321.07 234.184C326.131 234.184 328.662 231.756 329.269 228.569H344.452C342.984 239.242 334.786 245.261 320.514 245.261C306.242 245.261 294.905 236.865 294.905 221.185ZM328.965 215.216C328.965 209.552 325.929 206.365 320.665 206.365C318.302 206.365 316.034 207.292 314.348 208.948C312.663 210.604 311.697 212.855 311.657 215.216H328.965Z" fill="white"/>
<path d="M348.856 221.185V220.477C348.706 217.141 349.262 213.811 350.489 210.705C351.715 207.599 353.583 204.787 355.972 202.452C358.36 200.118 361.215 198.313 364.35 197.157C367.484 196.001 370.827 195.519 374.161 195.743C385.7 195.743 396.379 200.801 397.29 215.115H382.107C382.09 214.158 381.876 213.215 381.478 212.344C381.08 211.473 380.508 210.693 379.796 210.052C379.084 209.412 378.248 208.925 377.339 208.621C376.431 208.317 375.47 208.204 374.515 208.287C368.847 208.287 365.507 212.334 365.507 220.275V220.983C365.507 229.227 368.644 233.425 374.768 233.425C375.832 233.48 376.896 233.318 377.895 232.949C378.894 232.579 379.807 232.011 380.579 231.277C381.351 230.544 381.965 229.661 382.384 228.682C382.804 227.704 383.019 226.65 383.018 225.585H397.543C397.087 237.522 389.04 245.261 373.807 245.261C359.585 245.261 348.856 236.865 348.856 221.185Z" fill="white"/>
<path d="M403.667 227.761V197.009H420.065V225.131C420.065 230.493 422.14 233.072 426.745 233.072C431.351 233.072 434.792 230.189 434.792 224.17V197.009H450.937V244.2H434.539V236.866C433.136 239.62 430.941 241.892 428.235 243.388C425.529 244.885 422.436 245.537 419.356 245.262C410.449 245.262 403.667 239.698 403.667 227.761Z" fill="white"/>
<path d="M460.25 197.008H476.445V206.517C477.485 203.381 479.544 200.682 482.295 198.849C485.046 197.016 488.331 196.155 491.628 196.401V211.575C481.81 211.575 476.445 214.408 476.445 221.944V244.351H460.25V197.008Z" fill="white"/>
<path d="M498.51 184.212C498.515 183.072 498.752 181.945 499.204 180.899C499.657 179.853 500.317 178.909 501.145 178.125C501.972 177.34 502.95 176.731 504.019 176.334C505.089 175.938 506.227 175.761 507.367 175.816C508.463 175.816 509.549 176.032 510.562 176.451C511.575 176.871 512.496 177.485 513.271 178.26C514.047 179.035 514.662 179.955 515.082 180.968C515.501 181.98 515.717 183.066 515.717 184.162C515.717 185.257 515.501 186.343 515.082 187.355C514.662 188.368 514.047 189.288 513.271 190.063C512.496 190.838 511.575 191.452 510.562 191.872C509.549 192.291 508.463 192.507 507.367 192.507C506.234 192.569 505.101 192.4 504.035 192.012C502.969 191.624 501.993 191.025 501.166 190.25C500.338 189.475 499.676 188.54 499.22 187.502C498.763 186.465 498.522 185.346 498.51 184.212V184.212ZM499.32 197.009H515.515V244.2H499.32V197.009Z" fill="white"/>
<path d="M527.71 229.026V207.985H521.991V197.009H527.71V187.146H543.855V197.009H553.167V207.985H543.855V227.508C543.73 228.173 543.764 228.858 543.954 229.507C544.144 230.156 544.485 230.751 544.949 231.244C545.412 231.737 545.986 232.114 546.622 232.343C547.259 232.573 547.94 232.65 548.612 232.566C550.184 232.579 551.745 232.305 553.218 231.757V243.997C550.325 244.858 547.328 245.318 544.31 245.363C533.632 245.262 527.71 240.103 527.71 229.026Z" fill="white"/>
<path d="M575.438 239.395L556.712 197.009H574.223L583.991 222.299L592.999 197.009H608.182L582.877 259.98H567.694L575.438 239.395Z" fill="white"/>
<path d="M100.328 244.549C98.6025 244.524 96.8925 244.217 95.2663 243.639L94.0008 243.183L92.8872 242.829C37.3067 218.799 0 149.745 0 70.8254C0 64.8052 0 58.7851 0.658056 52.8156C0.635286 52.6308 0.635286 52.4439 0.658056 52.2591L1.97417 40.9776C2.37732 37.3155 4.06996 33.9159 6.74976 31.386C9.42956 28.8561 12.922 27.3606 16.6033 27.1667H22.1714C32.8859 25.8985 43.4491 23.577 53.7075 20.236C66.9073 16.3598 79.4989 10.6552 91.1155 3.28853C93.6944 1.52081 96.7456 0.568982 99.8727 0.556702H100.328C103.598 0.56618 106.796 1.51442 109.541 3.28853V3.28853C121.107 10.6489 133.647 16.3535 146.797 20.236C157.063 23.4959 167.627 25.7328 178.333 26.9138H183.851C187.541 27.096 191.046 28.5863 193.736 31.1173C196.426 33.6483 198.126 37.0544 198.531 40.7247L199.796 52.1579C199.768 52.3424 199.768 52.5299 199.796 52.7144C200.201 58.6839 200.454 64.7041 200.454 70.7242C200.454 149.492 163.097 218.546 107.567 242.728L106.605 243.133L105.34 243.588C103.735 244.189 102.041 244.514 100.328 244.549V244.549ZM31.5361 57.0145C31.2324 61.6181 31.0805 66.3229 31.0805 70.9771C31.0805 134.062 59.2757 191.026 100.328 212.02C141.33 191.026 169.576 134.062 169.576 70.8254C169.576 66.1712 169.576 61.4663 169.12 56.8627C158.473 55.3532 147.961 53.0019 137.686 49.8308C124.717 45.8841 112.197 40.594 100.328 34.0469C88.4421 40.5939 75.9049 45.8839 62.9203 49.8308C52.6645 53.0476 42.1705 55.4496 31.5361 57.0145V57.0145Z" fill="#A1CCFF"/>
<path d="M33.409 98.2958C32.1921 89.1891 31.5665 80.0133 31.5361 70.8258C31.5361 66.2221 31.5361 61.5679 31.9917 57.0149C42.5392 55.4299 52.9476 53.0281 63.1228 49.8312C76.0282 45.8891 88.482 40.5985 100.278 34.0473C112.101 40.5772 124.57 45.8667 137.483 49.8312C147.641 53.0277 158.033 55.4295 168.564 57.0149V57.0149C179.313 58.1942 190.16 58.1942 200.91 57.0149C200.91 54.2324 200.91 55.2948 200.505 52.4618C200.532 52.2774 200.532 52.0898 200.505 51.9053L199.239 40.4721C198.683 36.7269 196.826 33.2964 193.995 30.7809C191.163 28.2654 187.536 26.825 183.75 26.7118L178.232 26.4083C167.554 25.2574 157.021 23.0199 146.797 19.7305C133.776 15.8722 121.356 10.2193 109.895 2.93479C107.254 1.00057 104.058 -0.0286451 100.784 0.000606705H99.8221C96.7069 0.0378853 93.6743 1.00702 91.1155 2.78302C79.5066 10.1639 66.9129 15.8694 53.7075 19.7305C43.5154 23.0081 33.0173 25.2454 22.3739 26.4083L16.8564 26.7118C13.1127 26.8946 9.55705 28.4063 6.829 30.9751C4.10095 33.5439 2.37947 37.0011 1.97417 40.7251L0.708676 52.2089V52.7654C0 58.7349 0 64.8056 0 70.8258C0 149.897 37.2561 219.255 92.7353 243.336L93.6971 243.69L94.9626 244.145C98.4054 245.438 102.201 245.438 105.643 244.145L106.909 243.69L107.82 243.336C140.368 229.221 166.741 199.424 183.193 161.027L144.064 169.07C128.878 191.583 119.564 201.296 100.278 212.021C73.7023 198.26 52.5433 169.07 41.0526 132.95C60.5694 136.366 80.3645 137.942 100.176 137.654C145.734 137.654 176.41 128.902 195.443 121.162C198.839 109.13 200.542 96.6833 200.505 84.1814C197.113 86.0026 161.528 106.238 100.176 106.238C77.6677 106.542 55.2176 103.871 33.409 98.2958V98.2958Z" fill="white"/>
</svg>
